<?xml version="1.0" encoding="UTF-8" standalone="no"?>
<!-- Created with Inkscape (http://www.inkscape.org/) -->

<svg
   xmlns="http://www.w3.org/2000/svg"
   width="32mm"
   height="32mm"
   viewBox="0 0 32 32"
   role="img">
   <path
      d="M 26.457031 0 C 11.800023 7.1054272e-15 0 11.800023 0 26.457031 L 0 94.488281 C 7.1054272e-15 109.14529 11.800023 120.94531 26.457031 120.94531 L 94.488281 120.94531 C 109.14529 120.94531 120.94531 109.14529 120.94531 94.488281 L 120.94531 26.457031 C 120.94531 11.800023 109.14529 0 94.488281 0 L 26.457031 0 z M 26.457031 15.117188 A 11.338583 11.338583 0 0 1 37.794922 26.457031 A 11.338583 11.338583 0 0 1 32.126953 36.275391 L 32.126953 83.150391 C 32.126953 83.150391 32.125631 88.818359 37.794922 88.818359 L 84.667969 88.818359 A 11.338583 11.338583 0 0 1 94.488281 83.150391 A 11.338583 11.338583 0 0 1 105.82617 94.488281 A 11.338583 11.338583 0 0 1 94.488281 105.82617 A 11.338583 11.338583 0 0 1 84.667969 100.1582 L 26.457031 100.1582 C 20.78774 100.1582 20.787109 94.488281 20.787109 94.488281 L 20.787109 36.275391 A 11.338583 11.338583 0 0 1 15.117188 26.457031 A 11.338583 11.338583 0 0 1 26.457031 15.117188 z M 94.488281 15.117188 A 11.338583 11.338583 0 0 1 105.82617 26.457031 A 11.338583 11.338583 0 0 1 94.488281 37.794922 A 11.338583 11.338583 0 0 1 84.667969 32.126953 L 60.472656 32.126953 C 60.472656 32.126953 54.802734 32.125631 54.802734 37.794922 L 54.802734 61.992188 A 11.338583 11.338583 0 0 1 60.472656 71.810547 A 11.338583 11.338583 0 0 1 49.134766 83.150391 A 11.338583 11.338583 0 0 1 37.794922 71.810547 A 11.338583 11.338583 0 0 1 43.464844 61.992188 L 43.464844 26.457031 C 43.464844 20.78774 49.134766 20.787109 49.134766 20.787109 L 84.667969 20.787109 A 11.338583 11.338583 0 0 1 94.488281 15.117188 z M 71.810547 37.794922 A 11.338583 11.338583 0 0 1 83.150391 49.134766 A 11.338583 11.338583 0 0 1 71.810547 60.472656 A 11.338583 11.338583 0 0 1 60.472656 49.134766 A 11.338583 11.338583 0 0 1 71.810547 37.794922 z "
      transform="scale(0.26458333)"
   />
</svg>
