<svg
   viewBox="0 0 256 288"
   xmlns="http://www.w3.org/2000/svg">
  <path
     d="M 127.49414 0.001953125 C 122.98739 0.059703125 118.4885 1.4497656 113.9375 4.1347656 C 100.3945 12.121766 32.589766 50.968875 12.384766 62.671875 C 4.0637648 67.488875 0.015671865 74.861359 0.013671875 84.443359 C 0.00067187 123.89836 0.013 163.35259 0 202.80859 C 0 207.53259 0.99128135 211.71817 2.9882812 215.32617 C 5.0412814 219.03717 8.1560467 222.13908 12.373047 224.58008 C 32.579047 236.28308 100.39359 275.12623 113.93359 283.11523 C 123.03959 288.48823 131.93052 288.68077 141.10352 283.38477 C 175.11852 263.74477 209.17898 244.18541 243.20898 224.56641 C 247.42598 222.12641 250.5427 219.02245 252.5957 215.31445 C 253.0942 214.41245 253.529 213.4755 253.90234 212.50195 C 254.27569 211.52841 254.58731 210.51855 254.83594 209.47461 C 255.07999 208.44988 255.26242 207.39223 255.38672 206.30078 C 255.51566 205.16812 255.58203 204.00017 255.58203 202.79688 C 255.58203 202.79688 255.58139 123.90913 255.56836 84.453125 C 255.56786 83.245625 255.50276 82.072125 255.37305 80.935547 C 255.24328 79.798969 255.04887 78.699078 254.78906 77.634766 C 254.52925 76.570453 254.20509 75.541484 253.81445 74.550781 C 253.42381 73.560078 252.96756 72.607156 252.44531 71.691406 C 250.39331 68.089406 247.31927 65.070594 243.19727 62.683594 C 209.17227 43.064594 175.11556 23.506187 141.10156 3.8671875 C 136.51656 1.2201875 132.00089 -0.055796885 127.49414 0.001953125 z M 128.45703 48.625 C 163.48715 48.625 194.07749 67.594432 210.55078 95.8125 L 210.55859 95.808594 L 210.71875 96.082031 C 210.6656 95.990284 210.60423 95.904053 210.55078 95.8125 L 169.20898 119.61719 C 161.06232 105.82358 146.12785 96.515919 128.99609 96.324219 L 128.45703 96.320312 C 102.33146 96.320312 81.150391 117.49942 81.150391 143.625 C 81.150391 152.16861 83.42747 160.17843 87.388672 167.0957 C 95.54277 181.33095 110.87283 190.93164 128.45703 190.93164 C 146.1498 190.93164 161.56505 181.20779 169.67773 166.82031 L 169.48047 167.16602 L 210.76758 191.08398 C 194.51318 219.21354 164.25093 238.24185 129.51562 238.62109 L 128.45703 238.62695 C 93.202452 238.62695 62.432326 219.42209 46.039062 190.90234 C 38.036069 176.97937 33.457031 160.83759 33.457031 143.625 C 33.457031 91.158942 75.988742 48.626953 128.45703 48.626953 L 128.45703 48.625 z M 195.15625 116.29492 L 201.89258 116.29492 L 201.89258 129.76758 L 215.36523 129.76758 L 215.36523 116.29492 L 222.10352 116.29492 L 222.10352 129.76758 L 235.57617 129.76758 L 235.57617 136.50391 L 222.10352 136.50391 L 222.10352 149.97852 L 235.57617 149.97852 L 235.57617 156.71484 L 222.10352 156.71484 L 222.10352 170.18945 L 215.36523 170.18945 L 215.36523 156.71484 L 201.89258 156.71484 L 201.89258 170.18945 L 195.15625 170.18945 L 195.15625 156.71484 L 181.68164 156.71484 L 181.68164 149.97852 L 195.15625 149.97852 L 195.15625 136.50391 L 181.68164 136.50391 L 181.68164 129.76758 L 195.15625 129.76758 L 195.15625 116.29492 z M 201.89258 136.50391 L 201.89258 149.97852 L 215.36523 149.97852 L 215.36523 136.50391 L 201.89258 136.50391 z " />
</svg>
