<svg
   viewBox="0 0 432.071 445.383"
   xmlns="http://www.w3.org/2000/svg">
  <path
     d="m 309.88281,10.083984 c -15.72852,0.146105 -29.37552,2.493589 -38.82812,4.703125 -4.7263,1.104769 -8.3958,2.17568 -10.78516,2.941407 -1.19468,0.382863 -2.02881,0.671856 -2.68164,0.921875 -0.11469,0.04393 -0.24085,0.09568 -0.36914,0.148437 -9.56836,-2.33268 -19.84956,-3.782607 -30.96484,-3.964844 -22.0473,-0.36155 -39.91214,5.371596 -53.86914,14.619141 C 163.54685,26.06836 129.27208,13.937384 92.824219,16.027344 71.837285,17.230757 50.073464,23.551536 34.171875,40.396484 18.270286,57.241432 9.1542907,83.832498 11.101563,122.76367 c 0.469325,9.38592 3.585624,28.16994 8.833984,51.59375 5.24836,23.42382 12.626817,50.91622 21.722656,75.6582 9.095839,24.74199 19.484119,46.67777 32.939453,59.75586 6.727667,6.53905 14.884913,11.12577 24.011719,10.73829 9.126805,-0.38749 17.649055,-5.7489 25.105465,-14.7129 a 8.0008,8.0008 0 0 0 0.002,-0.002 c 16.5333,-19.89045 29.65845,-33.84288 33.38281,-37.77539 6.57406,3.34855 13.7625,5.44172 21.32422,6.02344 -3.71584,4.5221 -6.24499,7.87174 -8.08008,9.33398 -2.50231,1.9939 -6.82846,3.81132 -20.07617,6.53907 a 8.0008,8.0008 0 0 0 -0.002,0 c -7.47596,1.54098 -12.53099,3.17805 -16.63085,6.52148 -2.04994,1.67172 -3.94476,4.08501 -4.64454,7.12109 -0.69977,3.03609 0.0427,6.15324 1.20508,8.3086 2.32468,4.31072 5.59057,6.29014 8.86914,8.08398 3.278,1.79353 6.748,3.09318 10.07813,3.92578 6.93096,1.73437 18.58684,3.93545 31.72656,1.6875 8.70775,-1.48972 18.06911,-5.1924 26.66016,-12.02929 -0.0738,15.33232 0.0511,30.19522 0.60351,43.06445 0.43842,10.21387 1.07219,19.2799 1.92774,26.72266 0.85555,7.44276 1.71801,12.9941 3.57031,17.62695 a 8.0008,8.0008 0 0 0 0,0.002 c 2.49061,6.22551 6.724,16.62824 16.16406,24.58008 9.44007,7.95184 24.19899,12.52207 43.83985,8.31445 a 8.0008,8.0008 0 0 0 0.002,0 c 15.74277,-3.37503 27.66629,-8.61404 36.17773,-17.46093 8.51107,-8.8465 12.89126,-20.58955 15.38477,-35.05079 v -0.002 c 2.99305,-17.34235 7.42277,-53.90269 9.57422,-74.33203 5.18042,1.36047 10.88734,1.89818 17.08398,1.83008 13.71687,-0.15075 28.97194,-2.7043 39.97852,-7.8125 a 8.0008,8.0008 0 0 0 0.002,0 c 12.1703,-5.65203 21.63492,-12.32279 26.73438,-20.01367 1.27486,-1.92272 2.4287,-4.01102 2.7207,-7.04297 0.292,-3.03195 -1.29097,-7.36064 -4.08203,-9.48438 -5.58213,-4.24748 -10.44438,-3.01426 -16.78321,-1.70508 -24.26611,5.00849 -36.20952,3.02114 -41.06836,1.00977 -0.52475,-0.21723 -0.71389,-0.38912 -1.09375,-0.5918 25.3252,-38.95413 43.33555,-82.08281 52.94141,-119.27343 5.0172,-19.42489 7.77491,-37.19965 8.00586,-52.152348 0.23095,-14.9527 -1.59536,-27.276562 -8.47656,-36.070313 C 381.79158,18.708083 341.33986,9.7917742 309.88281,10.083984 Z m -50.04101,8.189453 c 0.12103,-0.0042 0.78589,0.410281 1.16797,0.572266 a 8,8 0 0 0 -3.05469,-0.271484 c -3.7e-4,1.14e-4 -0.003,-0.0097 0.34961,-0.09375 0.17628,-0.04202 0.13594,-0.158205 1.53711,-0.207032 z m 5.94531,2.914063 c 0.003,0.0017 0.0125,0.0081 0.0156,0.0098 -0.005,-0.0015 -0.009,-0.0044 -0.0137,-0.0059 a 8,8 0 0 0 -0.002,-0.0039 z m 44.24414,4.894531 c 28.42439,-0.264039 62.81127,7.152002 88.10547,39.472656 h -0.002 c 2.69828,3.448238 5.28322,12.810119 5.08007,25.962891 -0.20314,13.152772 -2.72283,29.902862 -7.5,48.398442 -8.42895,32.63405 -23.87407,70.74514 -45.2207,105.73046 6.73541,-13.4601 8.01435,-27.03874 7.4082,-39.33203 -0.72033,-14.60918 -3.57348,-27.78986 -3.21875,-38.70898 a 8.0008,8.0008 0 0 0 0,-0.004 c 0.48174,-15.10519 4.43668,-26.14945 3.95508,-42.49609 0.01,-0.0405 0.0609,-0.11697 0.0703,-0.15625 0.36834,-1.53133 0.29993,-2.3708 0.25586,-3.18945 -0.0881,-1.63731 -0.37099,-3.02941 -0.77734,-4.70118 -0.8127,-3.34353 -2.20668,-7.54211 -4.28125,-12.52734 C 349.75711,94.560794 342.89341,81.590902 332.6582,68.505859 321.12283,53.758638 304.93166,39.024647 283.96094,28.673828 c 7.53753,-1.332965 16.09171,-2.499104 26.07031,-2.591797 z m -84.03906,4.75 c 46.02969,0.754663 75.65689,24.000338 94.06445,47.533203 9.20378,11.766433 15.4509,23.598176 19.07813,32.314456 0.62274,1.49646 0.7334,2.19468 1.20312,3.48828 -20.8388,-1.66381 -35.25245,2.3798 -43.77148,12.12695 -10.02587,11.47122 -9.3383,27.40721 -5.5918,42.42774 3.7465,15.02052 10.91114,30.28275 17.46289,42.85546 3.27587,6.28636 6.40817,11.88441 8.87695,16.3125 2.46879,4.4281 4.37738,8.04264 4.67969,8.7754 3.85562,9.34772 8.78815,15.99943 12.5918,20.80273 1.89999,2.39933 1.94982,2.67514 2.9414,4.10742 -0.85213,0.3037 -1.58567,0.49866 -2.52539,0.92188 -3.77053,1.69811 -8.2301,4.91803 -11.07617,10.13476 -2.7382,5.01902 -3.94081,11.46421 -3.5957,19.58985 -0.78845,10.40397 -7.56696,67.08802 -10.89844,86.39062 -2.21254,12.83284 -5.60744,20.92039 -11.14648,26.67774 -5.53904,5.75734 -13.94071,9.89519 -28.00391,12.91015 -16.03479,3.43466 -24.30126,0.0435 -30.17969,-4.9082 -5.87817,-4.95148 -9.25788,-12.39096 -11.61523,-18.2832 v -0.002 c -0.57032,-1.42734 -1.74069,-6.65133 -2.5293,-13.51172 -0.78876,-6.86172 -1.41056,-15.62837 -1.83789,-25.58398 -0.85466,-19.91121 -0.94365,-44.61534 -0.25586,-69.20508 a 8,8 0 0 0 -0.375,-2.5918 c -0.2895,-1.97042 -0.75756,-3.88651 -1.41992,-5.67382 -2.49118,-6.72217 -7.08424,-12.60913 -14.03906,-15.49219 a 8.0008,8.0008 0 0 0 -0.002,0 c -2.06264,-0.85441 -5.81881,-2.48684 -10.66797,-2.11524 1.30544,-4.60377 3.16148,-9.91185 5.39063,-15.91992 l 0.002,-0.004 c 6.13018,-16.49204 23.57511,-40.04719 10.43555,-100.8125 -2.8175,-13.02654 -10.82392,-21.97862 -20.42383,-25.68555 -9.5999,-3.70693 -19.94926,-2.96148 -29.46875,-0.76563 -8.43629,1.946 -16.08952,5.18105 -22.48242,8.50391 1.06647,-11.0234 3.45112,-26.02605 9.18164,-41.210937 5.35226,-14.18255 13.4508,-27.93333 25.44531,-37.919922 11.99452,-9.986592 27.86669,-16.559524 50.55274,-16.1875 z m -118.375,1.148438 c 20.21193,1.003316 38.63195,5.967024 50.30468,9.648437 -10.65879,11.188834 -17.93907,24.520663 -22.89843,37.66211 -11.86678,31.444914 -11.11071,62.282694 -11.08594,63.193354 -2.5e-4,0.0221 -0.006,0.0344 -0.006,0.0566 a 8.0008,8.0008 0 0 0 0,0.002 c -1.5e-4,0.023 0.006,0.0882 0.006,0.11133 9e-5,0.003 -0.002,0.15039 -0.002,0.15039 a 8,8 0 0 0 0.008,0.0195 c -0.008,4.36669 0.70255,10.91677 0.92578,20.85351 0.22624,10.07075 -0.0307,22.79263 -1.92773,36.35743 -3.26629,23.35693 5.60146,45.01653 20.81445,58.8457 -5.28108,5.61674 -16.96318,18.18189 -32.34375,36.68555 -5.71609,6.87102 -10.09928,8.81348 -13.480469,8.95703 -3.381584,0.14357 -7.334163,-1.51114 -12.183594,-6.22461 C 76.049185,288.87189 65.4118,268.25736 56.675781,244.49414 47.939763,220.73092 40.680427,193.76208 35.548828,170.85937 30.41723,147.95667 27.411205,128.54791 27.082031,121.96484 25.274807,85.833593 33.534976,64.380538 45.806641,51.380859 58.078305,38.381181 75.285582,33.05821 93.740234,32 c 4.613663,-0.264552 9.266516,-0.248393 13.876956,-0.01953 z m 228.21289,97.937501 c 2.10571,0.099 4.32411,0.2625 6.71875,0.52539 -0.50146,11.29097 -3.36778,21.31336 -3.85742,36.64258 -5e-5,0.001 4e-5,0.003 0,0.004 -3e-5,7.2e-4 2e-5,0.001 0,0.002 -0.44821,13.82674 2.59789,27.18251 3.23046,40.01172 0.45241,9.17524 -0.22701,17.88388 -3.63867,26.66406 -0.50533,-1.04649 -1.02272,-2.05073 -1.49804,-3.20313 -1.20695,-2.92549 -3.01819,-6.02038 -5.4961,-10.46484 -2.47791,-4.44446 -5.51917,-9.88282 -8.66211,-15.91406 -6.28586,-12.06249 -12.93946,-26.55661 -16.12695,-39.33594 -2.21182,-8.86764 -2.45342,-16.22252 -0.91406,-21.75781 0.54159,1.67745 1.26792,2.92409 2.08984,3.94531 1.10696,1.37537 2.39853,2.5474 3.94336,3.59375 3.08883,2.09213 7.4161,3.74266 12.44531,3.04297 5.0358,-0.69814 8.67396,-3.30726 11.25586,-6.01953 1.29096,-1.35614 2.3393,-2.76965 3.17969,-4.39258 0.70271,-1.35704 1.34115,-2.98154 1.30469,-5.46875 a 8.0008,8.0008 0 0 0 0.13672,-0.24805 v -0.002 l -0.125,0.008 c -0.0158,-0.41281 0.1152,-0.63478 0.0488,-1.11133 a 8.0008,8.0008 0 0 0 -0.002,-0.002 c -9e-5,-6.5e-4 9e-5,-0.001 0,-0.002 -0.43148,-3.0869 -2.35812,-5.26705 -4.0332,-6.51758 z m -164.41602,2.51758 c -0.81019,0.32678 -1.63976,0.75611 -2.50586,1.35547 -1.72417,1.19315 -3.83246,3.52745 -4.29883,6.76562 a 8.0008,8.0008 0 0 0 -0.0137,0.0254 c -0.001,0.009 0.001,0.0123 0,0.0215 -8.6e-4,0.006 -0.003,0.0113 -0.004,0.0176 l 0.006,-0.004 c -0.48648,3.51922 0.52189,5.18304 1.35937,6.80078 0.84106,1.62463 1.88826,3.03841 3.17969,4.39453 2.58177,2.71109 6.21994,5.31805 11.25195,6.01758 5.03092,0.70167 9.35825,-0.9497 12.44727,-3.04297 1.54451,-1.04664 2.8365,-2.21923 3.94336,-3.5957 0.39903,-0.49623 0.76914,-1.06252 1.13672,-1.63477 11.5481,55.50121 -2.55147,69.29891 -10.16407,89.7832 a 8.0008,8.0008 0 0 0 -0.002,0.004 c -2.40312,6.47684 -4.93316,12.68734 -6.58008,18.91602 -25.29718,-0.9749 -46.59815,-25.8566 -42.38281,-56.00782 v -0.002 c 2.05874,-14.72242 2.31712,-28.29288 2.07812,-38.93164 -0.20915,-9.31032 -0.6853,-15.25682 -0.8164,-18.08984 1.26107,-0.99812 3.29652,-2.39037 5.92773,-3.85547 5.52207,-3.07479 13.2719,-6.37346 20.91602,-8.13672 1.52814,-0.3525 3.02912,-0.58508 4.52148,-0.80078 z m 9.02344,10.35742 c -4.4e-4,0.003 4.4e-4,0.003 0,0.006 -0.002,0.012 -0.01,0.0174 -0.0117,0.0293 l -0.0137,0.0117 a 8.0008,8.0008 0 0 0 0.0254,-0.0469 z m 166.89453,132.44336 c 1.63581,1.21714 3.58621,2.3669 5.9082,3.32812 8.52256,3.52802 21.98259,4.68648 43.5586,0.98828 -3.32967,2.39144 -7.2726,4.89735 -11.69922,6.95313 -7.33901,3.40538 -21.81714,6.19868 -33.41797,6.32617 -5.80093,0.0638 -10.99571,-0.55386 -13.88281,-1.45117 -0.9186,-0.2855 -1.07044,-0.43401 -1.42774,-0.63086 -0.10622,-5.43792 0.69928,-8.79927 1.60157,-10.45313 0.99793,-1.82917 1.95314,-2.46942 3.59961,-3.21093 1.41105,-0.63549 3.42244,-1.10114 5.75976,-1.84961 z m -148.76367,1.5332 c 0.49487,-0.0432 1.39233,0.15684 3.33398,0.96094 1.39417,0.57794 4.0305,3.21071 5.16407,6.26953 1.13357,3.05882 0.90523,5.65186 -0.22657,7.23633 a 8.0008,8.0008 0 0 0 0,0.002 c -8.77606,12.28843 -18.85646,16.87809 -28.66797,18.55664 -9.8115,1.67855 -19.30946,0.0212 -25.14648,-1.43945 a 8.0008,8.0008 0 0 0 -0.002,0 c -1.20519,-0.30127 -2.56291,-0.95701 -3.91211,-1.52149 1.35304,-0.42516 2.4581,-0.85123 4.38281,-1.24804 13.89126,-2.86025 21.14014,-5.16922 26.82031,-9.69532 5.68018,-4.52609 7.87667,-9.10146 14.25,-16.2207 a 8.0008,8.0008 0 0 0 0.006,-0.006 c 2.54141,-2.84419 3.50291,-2.85129 3.99805,-2.89453 z"
     id="path2" />
</svg>
