<svg
  xmlns="http://www.w3.org/2000/svg" viewBox="0 0 576 512">
  <path
     d="M 50 0 C 22.3 0 0 22.3 0 50 L 0 462 C 0 489.7 22.3 512 50 512 L 462 512 C 489.7 512 512 489.7 512 462 L 512 50 C 512 22.3 489.7 0 462 0 L 50 0 z M 404.11133 238 C 415.79633 238 426.15273 238.70333 435.17773 240.11133 C 444.20273 241.51933 452.52463 243.68352 460.14062 246.60352 L 460.14062 293.38086 C 456.38462 290.77286 452.28947 288.47809 447.85547 286.49609 C 443.42047 284.51509 438.85516 282.87236 434.16016 281.56836 C 429.46416 280.26536 424.79534 279.29983 420.15234 278.67383 C 415.50934 278.04883 411.10269 277.73633 406.92969 277.73633 C 401.19069 277.73633 395.97334 278.28391 391.27734 279.37891 C 386.58234 280.47391 382.61977 282.01119 379.38477 283.99219 C 376.15077 285.97419 373.64509 288.34733 371.87109 291.11133 C 370.09709 293.87533 369.21094 296.97892 369.21094 300.41992 C 369.21094 304.17492 370.20355 307.53677 372.18555 310.50977 C 374.16755 313.48177 376.98472 316.29703 380.63672 318.95703 C 384.28872 321.61603 388.72245 324.2233 393.93945 326.7793 C 399.15645 329.3343 405.05005 331.96769 411.62305 334.67969 C 420.59605 338.43369 428.65769 342.42248 435.80469 346.64648 C 442.95169 350.87048 449.08136 355.64389 454.19336 360.96289 C 459.30636 366.28189 463.21864 372.3565 465.93164 379.1875 C 468.64464 386.0185 470 393.97092 470 403.04492 C 470 415.55992 467.62591 426.06641 462.87891 434.56641 C 458.13191 443.06641 451.68878 449.9508 443.55078 455.2168 C 435.41278 460.4838 425.94353 464.26459 415.14453 466.55859 C 404.34553 468.85359 392.94822 470 380.94922 470 C 368.63722 470 356.92645 468.95709 345.81445 466.87109 C 334.70245 464.78509 325.07745 461.65638 316.93945 457.48438 L 316.93945 407.42383 C 326.01645 415.03783 335.87558 420.74869 346.51758 424.55469 C 357.16058 428.36169 367.90681 430.26367 378.75781 430.26367 C 385.12281 430.26367 390.67778 429.69097 395.42578 428.54297 C 400.17278 427.39597 404.13831 425.80548 407.32031 423.77148 C 410.50231 421.73748 412.87641 419.34017 414.44141 416.57617 C 416.00641 413.81217 416.78906 410.81308 416.78906 407.58008 C 416.78906 403.19908 415.5372 399.28866 413.0332 395.84766 C 410.5282 392.40566 407.11125 389.22469 402.78125 386.30469 C 398.45225 383.38469 393.31223 380.56942 387.36523 377.85742 C 381.41823 375.14542 375.00123 372.38241 368.11523 369.56641 C 350.58623 362.26541 337.51911 353.34745 328.91211 342.81445 C 320.30411 332.28045 316 319.55658 316 304.64258 C 316 292.96158 318.34797 282.9243 323.04297 274.5293 C 327.73797 266.1333 334.12884 259.22478 342.21484 253.80078 C 350.30184 248.37778 359.66464 244.38703 370.30664 241.83203 C 380.94864 239.27703 392.21633 238 404.11133 238 z M 118 243 L 297 243 L 297 284.08203 L 232.7793 284.08203 L 232.7793 467 L 181.90625 467 L 181.90625 284.08203 L 118 284.08203 L 118 243 z " />
</svg>
