<?xml version="1.0" encoding="UTF-8" standalone="no"?>
<!-- Created with Inkscape (http://www.inkscape.org/) -->

<svg
   width="141.315mm"
   height="24mm"
   viewBox="0 0 141.315 24"
   version="1.1"
   id="svg2356"
   inkscape:version="1.1.1 (3bf5ae0d25, 2021-09-20)"
   sodipodi:docname="Logo_Completa.svg"
   xmlns:inkscape="http://www.inkscape.org/namespaces/inkscape"
   xmlns:sodipodi="http://sodipodi.sourceforge.net/DTD/sodipodi-0.dtd"
   xmlns="http://www.w3.org/2000/svg"
   xmlns:svg="http://www.w3.org/2000/svg">
  <sodipodi:namedview
     id="namedview2358"
     pagecolor="#505050"
     bordercolor="#ffffff"
     borderopacity="1"
     inkscape:pageshadow="0"
     inkscape:pageopacity="0"
     inkscape:pagecheckerboard="1"
     inkscape:document-units="mm"
     showgrid="false"
     inkscape:snap-bbox="true"
     inkscape:bbox-paths="true"
     inkscape:bbox-nodes="true"
     inkscape:snap-bbox-edge-midpoints="true"
     inkscape:snap-bbox-midpoints="true"
     inkscape:object-paths="true"
     inkscape:snap-intersection-paths="true"
     inkscape:snap-smooth-nodes="true"
     inkscape:snap-midpoints="true"
     inkscape:snap-page="true"
     width="141.315mm"
     inkscape:zoom="1.2699352"
     inkscape:cx="281.11671"
     inkscape:cy="119.29743"
     inkscape:window-width="1366"
     inkscape:window-height="705"
     inkscape:window-x="-8"
     inkscape:window-y="-8"
     inkscape:window-maximized="1"
     inkscape:current-layer="layer1" />
  <defs
     id="defs2353" />
  <g
     inkscape:label="Logo_Completa"
     inkscape:groupmode="layer"
     id="layer1">
    <path
       id="rect846-3"
       style="fill:#F5F5F5;fill-opacity:1;stroke-width:1.28721;stroke-linejoin:bevel"
       d="M 15.117188 0 L 0 15.117188 L 10.076172 25.195312 L 10.076172 65.513672 L 25.195312 80.632812 L 65.515625 80.632812 L 75.589844 90.708984 L 90.708984 75.589844 L 80.632812 65.515625 L 80.632812 29.373047 L 89.845703 20.160156 L 125.98828 20.160156 L 136.0625 30.236328 L 151.18164 15.117188 L 136.0625 0 L 125.98633 10.076172 L 85.666016 10.076172 L 70.548828 25.195312 L 70.548828 65.513672 L 65.513672 70.548828 L 29.373047 70.548828 L 20.160156 61.335938 L 20.160156 25.193359 L 30.236328 15.117188 L 15.117188 0 z M 181.41797 0 L 181.41797 31.640625 L 186.90625 39.199219 L 202.58594 39.199219 L 202.58594 33.152344 L 189.76172 33.152344 L 187.24219 29.568359 L 187.24219 0 L 181.41797 0 z M 303.66602 0 L 298.12109 7.5605469 L 298.12109 39.199219 L 304.00195 39.199219 L 304.00195 22.400391 L 318.05664 22.400391 L 318.05664 16.351562 L 304.00195 16.351562 L 304.00195 9.6328125 L 306.57812 5.9921875 L 322.42578 5.9921875 L 322.42578 0 L 303.66602 0 z M 496.97656 0.16796875 L 496.97656 13.664062 L 495.46484 12.431641 L 481.96875 12.431641 L 476.20117 17.248047 L 476.20117 34.328125 L 481.96875 39.199219 L 497.08984 39.199219 L 502.85742 34.328125 L 502.85742 0.16796875 L 496.97656 0.16796875 z M 237.36133 3.4726562 L 237.36133 9.4648438 L 242.51367 9.4648438 L 242.51367 3.4726562 L 237.36133 3.4726562 z M 225.88086 12.376953 L 225.88086 30.912109 L 223.5293 33.320312 L 214.84961 33.320312 L 212.55273 30.912109 L 212.55273 12.431641 L 206.67383 12.431641 L 206.67383 34.552734 L 212.94531 39.199219 L 225.43359 39.199219 L 231.70508 34.552734 L 231.70508 12.376953 L 225.88086 12.376953 z M 237.30469 12.431641 L 237.30469 39.199219 L 242.40039 39.199219 L 242.40039 12.431641 L 237.30469 12.431641 z M 363.92188 12.431641 L 359.16211 16.072266 L 359.16211 39.199219 L 364.98438 39.199219 L 364.98438 19.992188 L 367.16992 18.3125 L 373.10547 18.3125 L 376.46484 20.775391 L 379.82617 16.072266 L 375.06445 12.431641 L 363.92188 12.431641 z M 422.02344 12.486328 L 415.75 17.078125 L 415.75 39.144531 L 421.63086 39.144531 L 421.63086 28.787109 L 434.95898 28.787109 L 434.95898 39.199219 L 440.83789 39.199219 L 440.83789 17.078125 L 434.56641 12.486328 L 422.02344 12.486328 z M 333.73633 12.488281 L 327.46484 17.080078 L 327.46484 34.552734 L 333.73633 39.199219 L 348.35352 39.199219 L 354.06445 34.607422 L 350.20117 30.015625 L 346.28125 33.320312 L 335.69727 33.320312 L 333.3457 31.583984 L 333.3457 27.943359 L 354.12109 27.943359 L 354.12109 17.191406 L 348.35352 12.488281 L 333.73633 12.488281 z M 391.13672 12.488281 L 384.86523 17.080078 L 384.86523 39.144531 L 390.74609 39.144531 L 390.74609 20.103516 L 393.09766 18.3125 L 401.7207 18.3125 L 404.07422 20.103516 L 404.07422 39.199219 L 409.95312 39.199219 L 409.95312 17.080078 L 403.68164 12.488281 L 391.13672 12.488281 z M 452.9043 12.488281 L 446.63281 17.080078 L 446.63281 39.144531 L 452.51367 39.144531 L 452.51367 20.103516 L 454.86523 18.3125 L 463.48828 18.3125 L 465.8418 20.103516 L 465.8418 39.199219 L 471.7207 39.199219 L 471.7207 17.080078 L 465.44922 12.488281 L 452.9043 12.488281 z M 514.16992 12.488281 L 507.89648 17.080078 L 507.89648 34.664062 L 514.16992 39.3125 L 527.88867 39.3125 L 534.10547 34.664062 L 534.10547 17.080078 L 527.88867 12.488281 L 514.16992 12.488281 z M 252.87305 12.544922 L 247.55273 17.304688 L 247.55273 23.800781 L 252.87305 28.615234 L 263.56836 28.615234 L 265.5293 30.464844 L 265.5293 31.863281 L 263.68164 33.488281 L 247.94531 33.488281 L 247.94531 39.199219 L 265.69727 39.199219 L 271.24023 34.552734 L 271.24023 27.943359 L 265.80859 22.904297 L 255.00195 22.904297 L 253.26562 21.279297 L 253.26562 19.824219 L 255.00195 18.255859 L 270.06445 18.255859 L 270.06445 12.544922 L 252.87305 12.544922 z M 423.98242 18.310547 L 432.60742 18.310547 L 434.95898 20.101562 L 434.95898 22.904297 L 421.63086 22.904297 L 421.63086 20.101562 L 423.98242 18.310547 z M 335.69727 18.3125 L 346.28125 18.3125 L 348.24023 19.935547 L 348.24023 22.34375 L 333.3457 22.34375 L 333.3457 20.103516 L 335.69727 18.3125 z M 516.12891 18.3125 L 525.87305 18.3125 L 528.22461 20.103516 L 528.22461 31.640625 L 525.87305 33.431641 L 516.12891 33.431641 L 513.77734 31.640625 L 513.77734 20.103516 L 516.12891 18.3125 z M 484.09766 18.367188 L 494.40039 18.367188 L 496.97656 21.335938 L 496.97656 31.472656 L 495.01758 33.152344 L 484.04102 33.152344 L 482.08203 31.472656 L 482.08203 20.048828 L 484.09766 18.367188 z M 105.82617 30.236328 L 90.708984 45.353516 L 105.82617 60.472656 L 120.94531 45.353516 L 105.82617 30.236328 z M 187.57422 53.599609 L 181.41797 58.832031 L 181.41797 65.957031 L 185.92578 69.820312 L 199.24609 69.820312 L 201.38086 71.671875 L 201.38086 74.771484 L 197.59766 77.990234 L 188.82227 77.990234 L 185.16016 74.810547 L 185.16016 72.837891 L 181.41797 72.837891 L 181.41797 76.501953 L 187.45508 81.773438 L 198.96484 81.773438 L 205.12305 76.541016 L 205.12305 69.900391 L 200.57422 66.037109 L 187.29297 66.037109 L 185.16016 64.185547 L 185.16016 60.5625 L 188.9043 57.382812 L 197.67773 57.382812 L 201.38086 60.5625 L 201.38086 62.9375 L 205.12305 62.9375 L 205.12305 58.873047 L 199.08594 53.599609 L 187.57422 53.599609 z M 238.60938 53.599609 L 234.74414 58.914062 L 234.74414 62.535156 L 230.39844 62.535156 L 230.39844 66.318359 L 234.74414 66.318359 L 234.74414 81.773438 L 238.36719 81.773438 L 238.36719 66.318359 L 242.875 66.318359 L 242.875 62.535156 L 238.36719 62.535156 L 238.36719 60.201172 L 240.37891 57.34375 L 242.875 57.34375 L 242.875 53.599609 L 238.60938 53.599609 z M 378.58984 53.599609 L 374.44336 57.021484 L 374.44336 63.017578 L 378.30664 67.123047 L 372.63281 70.988281 L 372.63281 78.232422 L 376.41602 81.773438 L 391.54883 81.773438 L 395.6543 78.353516 L 395.6543 70.826172 L 391.91016 70.826172 L 391.91016 75.576172 L 384.10352 67.726562 L 390.66406 63.259766 L 390.66406 56.980469 L 386.15625 53.599609 L 378.58984 53.599609 z M 415.77734 53.599609 L 415.77734 81.773438 L 435.69922 81.773438 L 439.72461 76.419922 L 439.72461 58.953125 L 435.69922 53.599609 L 415.77734 53.599609 z M 250.03906 53.640625 L 250.03906 62.535156 L 245.69141 62.535156 L 245.69141 66.279297 L 250.03906 66.279297 L 250.03906 81.773438 L 253.66211 81.773438 L 253.66211 66.279297 L 258.16992 66.279297 L 258.16992 62.535156 L 253.66211 62.535156 L 253.66211 53.640625 L 250.03906 53.640625 z M 486.00977 56.376953 L 486.00977 60.201172 L 489.26953 60.201172 L 489.26953 56.376953 L 486.00977 56.376953 z M 379.91797 57.382812 L 384.94922 57.382812 L 386.91992 58.873047 L 386.91992 61.248047 L 381.44727 64.951172 L 378.1875 61.529297 L 378.1875 58.832031 L 379.91797 57.382812 z M 419.52148 57.382812 L 433.80859 57.382812 L 435.94141 60.242188 L 435.94141 75.132812 L 433.80859 77.990234 L 419.52148 77.990234 L 419.52148 57.382812 z M 261.38867 62.535156 L 261.38867 74.207031 L 266.46094 81.773438 L 273.82617 81.773438 L 275.51562 75.212891 L 277.16602 81.773438 L 284.53125 81.773438 L 289.60156 74.207031 L 289.60156 62.535156 L 285.85938 62.535156 L 285.85938 73.121094 L 282.51953 78.070312 L 279.41992 78.070312 L 277.125 67.525391 L 273.90625 67.525391 L 271.57227 78.070312 L 268.47266 78.070312 L 265.17188 73.121094 L 265.17188 62.535156 L 261.38867 62.535156 z M 319.0625 62.535156 L 315.96484 64.910156 L 315.96484 81.773438 L 319.62695 81.773438 L 319.62695 67.6875 L 321.51758 66.238281 L 326.1875 66.238281 L 328.40039 67.847656 L 330.5332 64.910156 L 327.43555 62.535156 L 319.0625 62.535156 z M 485.96875 62.535156 L 485.96875 81.773438 L 489.22852 81.773438 L 489.22852 62.535156 L 485.96875 62.535156 z M 212.76953 62.576172 L 208.34375 65.835938 L 208.34375 78.554688 L 212.76953 81.853516 L 222.75195 81.853516 L 227.17773 78.554688 L 227.17773 65.835938 L 222.75195 62.576172 L 212.76953 62.576172 z M 298.23438 62.576172 L 293.76758 65.835938 L 293.76758 81.732422 L 297.4707 81.732422 L 297.4707 74.029297 L 308.0957 74.029297 L 308.0957 81.773438 L 311.79883 81.773438 L 311.79883 65.835938 L 307.33008 62.576172 L 298.23438 62.576172 z M 338.18164 62.576172 L 333.75391 65.835938 L 333.75391 78.472656 L 338.18164 81.773438 L 348.8457 81.773438 L 352.71094 78.634766 L 350.29492 75.736328 L 347.51758 78.070312 L 339.42773 78.070312 L 337.45703 76.621094 L 337.45703 73.443359 L 352.91211 73.443359 L 352.91211 65.916016 L 348.8457 62.576172 L 338.18164 62.576172 z M 447.37109 62.576172 L 442.94531 65.835938 L 442.94531 78.472656 L 447.37109 81.773438 L 458.03711 81.773438 L 461.90039 78.634766 L 459.48633 75.736328 L 456.70898 78.070312 L 448.61914 78.070312 L 446.64844 76.621094 L 446.64844 73.443359 L 462.10156 73.443359 L 462.10156 65.916016 L 458.03711 62.576172 L 447.37109 62.576172 z M 496.95703 62.576172 L 492.89258 65.957031 L 492.89258 78.353516 L 496.95703 81.773438 L 506.77734 81.773438 L 508.34766 80.607422 L 508.34766 85.476562 L 506.375 86.964844 L 499.85547 86.964844 L 497.03711 84.591797 L 494.70312 87.488281 L 498.56641 90.708984 L 507.58203 90.708984 L 512.04883 87.367188 L 512.04883 65.957031 L 507.98438 62.576172 L 496.95703 62.576172 z M 520.54102 62.576172 L 516.07422 65.835938 L 516.07422 81.734375 L 519.77734 81.734375 L 519.77734 67.726562 L 521.75 66.238281 L 528.42969 66.238281 L 530.40234 67.726562 L 530.40234 81.773438 L 534.10547 81.773438 L 534.10547 65.835938 L 529.63672 62.576172 L 520.54102 62.576172 z M 469.06445 62.615234 L 465.32227 65.996094 L 465.32227 70.544922 L 469.06445 73.925781 L 477.07422 73.925781 L 478.76562 75.496094 L 478.76562 76.824219 L 477.1543 78.191406 L 465.60352 78.191406 L 465.60352 81.773438 L 478.40234 81.773438 L 482.34766 78.513672 L 482.34766 73.925781 L 478.48242 70.34375 L 470.43359 70.34375 L 468.9043 68.974609 L 468.9043 67.566406 L 470.43359 66.197266 L 481.46094 66.197266 L 481.46094 62.615234 L 469.06445 62.615234 z M 214.01758 66.238281 L 221.50391 66.238281 L 223.47656 67.726562 L 223.47656 76.662109 L 221.50391 78.152344 L 214.01758 78.152344 L 212.04492 76.662109 L 212.04492 67.726562 L 214.01758 66.238281 z M 299.44141 66.238281 L 306.12305 66.238281 L 308.0957 67.726562 L 308.0957 70.324219 L 297.4707 70.324219 L 297.4707 67.726562 L 299.44141 66.238281 z M 339.42773 66.238281 L 347.51758 66.238281 L 349.20898 67.646484 L 349.20898 69.900391 L 337.45703 69.900391 L 337.45703 67.726562 L 339.42773 66.238281 z M 448.61914 66.238281 L 456.70898 66.238281 L 458.40039 67.646484 L 458.40039 69.900391 L 446.64844 69.900391 L 446.64844 67.726562 L 448.61914 66.238281 z M 498.28516 66.318359 L 506.375 66.318359 L 508.34766 67.808594 L 508.34766 76.501953 L 506.375 77.990234 L 498.28516 77.990234 L 496.59375 76.582031 L 496.59375 67.726562 L 498.28516 66.318359 z M 380.88281 69.900391 L 388.97266 77.990234 L 377.9043 77.990234 L 376.375 76.582031 L 376.375 72.958984 L 380.88281 69.900391 z "
       transform="scale(0.26458333)" />
  </g>
</svg>
