<?xml version="1.0" encoding="UTF-8" standalone="no"?>
<!-- Created with Inkscape (http://www.inkscape.org/) -->

<svg
   width="256"
   height="256"
   viewBox="0 0 67.733332 67.733335"
   version="1.1"
   id="svg1581"
   inkscape:version="1.1.1 (3bf5ae0d25, 2021-09-20)"
   sodipodi:docname="Logo_Alura_Branco.svg"
   xmlns:inkscape="http://www.inkscape.org/namespaces/inkscape"
   xmlns:sodipodi="http://sodipodi.sourceforge.net/DTD/sodipodi-0.dtd"
   xmlns="http://www.w3.org/2000/svg"
   xmlns:svg="http://www.w3.org/2000/svg">
  <sodipodi:namedview
     id="namedview1583"
     pagecolor="#505050"
     bordercolor="#ffffff"
     borderopacity="1"
     inkscape:pageshadow="0"
     inkscape:pageopacity="0"
     inkscape:pagecheckerboard="1"
     inkscape:document-units="mm"
     showgrid="false"
     units="px"
     inkscape:snap-bbox="true"
     inkscape:bbox-paths="true"
     inkscape:snap-bbox-edge-midpoints="true"
     inkscape:bbox-nodes="true"
     inkscape:snap-bbox-midpoints="true"
     inkscape:object-paths="true"
     inkscape:snap-intersection-paths="true"
     inkscape:snap-smooth-nodes="true"
     inkscape:snap-midpoints="true"
     inkscape:snap-page="true"
     inkscape:zoom="1.2699352"
     inkscape:cx="-5.1183714"
     inkscape:cy="117.72254"
     inkscape:window-width="1366"
     inkscape:window-height="705"
     inkscape:window-x="-8"
     inkscape:window-y="-8"
     inkscape:window-maximized="1"
     inkscape:current-layer="layer1" />
  <defs
     id="defs1578" />
  <g
     inkscape:label="Logo_Alura_Branco"
     inkscape:groupmode="layer"
     id="layer1">
    <path
       id="rect1022-8"
       style="fill:#f5f5f5;fill-opacity:1;stroke-width:5.28399"
       d="M 0,0 V 67.733333 H 67.733333 V 0 Z m 33.893538,10.922331 h 0.0026 c 5.053529,0 8.803529,0.964787 11.193113,2.950207 2.333533,1.97952 3.527952,4.445675 3.527952,7.392829 V 46.46228 c 0,1.020736 -0.218366,2.144427 -0.598929,3.37757 a 7.6702707,7.6702707 0 0 1 -2.170928,3.378089 c -1.088588,1.017786 -2.608019,1.87623 -4.510836,2.572451 -1.899867,0.699175 -4.398449,1.020612 -7.442957,1.020612 -3.097609,0 -5.540655,-0.377489 -7.443472,-1.020612 -1.899822,-0.643122 -3.422052,-1.554665 -4.50769,-2.572451 -1.088589,-1.017786 -1.849517,-2.144945 -2.174029,-3.378089 -0.380563,-1.233143 -0.598929,-2.359784 -0.598929,-3.37757 v -4.020944 c 0,-2.144726 0.599014,-4.127251 1.684652,-5.897314 1.141691,-1.770062 2.716914,-3.053569 4.779037,-3.752744 1.032536,-0.374663 2.177102,-0.695955 3.53415,-1.179772 1.303946,-0.480867 2.607834,-0.855636 3.858678,-1.339453 1.247894,-0.427765 2.280833,-0.802402 3.260267,-1.123963 0.923383,-0.377613 1.519053,-0.537168 1.737363,-0.643371 0.218305,-0.109154 0.542618,-0.268333 0.86713,-0.48369 0.383513,-0.215358 0.708257,-0.536636 1.088821,-0.855248 0.380563,-0.430715 0.648824,-0.861684 0.867132,-1.342551 0.27436,-0.536919 0.383955,-1.126921 0.383955,-1.823146 v -1.60197 c 0,-0.590021 -0.109595,-1.126794 -0.383955,-1.769917 -0.215358,-0.643122 -0.648991,-1.12396 -1.19476,-1.660879 -0.542819,-0.536919 -1.357099,-0.91439 -2.280481,-1.233001 -0.923383,-0.324511 -2.117709,-0.484209 -3.586861,-0.484209 -2.879302,0 -4.779269,0.590394 -5.867858,1.770436 a 6.3132228,6.3132228 0 0 0 -1.519287,3.698999 c 0,0.321562 -0.271468,0.536917 -0.59893,0.536917 h -6.08335 a 0.59887114,0.59887114 0 0 1 -0.598929,-0.592728 v -1.504818 c 0,-1.445551 0.2716,-2.7847 0.814419,-4.017843 0.542819,-1.233144 1.416026,-2.360176 2.66392,-3.32486 1.194792,-0.911582 2.713956,-1.713982 4.616773,-2.197799 a 33.15327,33.15327 0 0 1 6.682279,-0.696081 z m 7.442956,22.624457 c -0.109154,0.590021 -0.433464,0.964665 -0.867129,1.286227 a 5.8618569,5.8618569 0 0 1 -1.304314,0.642855 c -0.870281,0.321562 -1.8497,0.643237 -2.826184,0.964798 -0.979435,0.374663 -1.955903,0.696341 -2.826184,0.964801 -1.032536,0.374663 -2.06479,0.695946 -2.93212,1.017508 -0.708025,0.324511 -1.357358,0.699423 -2.012281,1.18029 a 6.8088403,6.8088403 0 0 0 -1.409734,1.769917 c -0.436616,0.749326 -0.652156,1.607653 -0.652156,2.681491 0,2.141776 0.54256,3.752588 1.575096,4.823476 1.032537,1.017786 2.9888,1.608172 5.81205,1.608172 2.879301,0 4.83803,-0.589992 5.923668,-1.66088 1.032537,-1.126939 1.575615,-2.681605 1.575615,-4.720127 z" />
  </g>
</svg>
